<?xml version="1.0" encoding="utf-8"?>

<svg xmlns="http://www.w3.org/2000/svg" fill="#fff" width="24" height="24">
<path d="M18.3,0H5.7C2.5,0,0,2.5,0,5.7v12.7C0,21.5,2.5,24,5.7,24h12.7c3.1,0,5.7-2.5,5.7-5.7V5.7C24,2.5,21.5,0,18.3,0z M5.1,5.9
	h13.9c0.4,0,0.5,0.5,0.3,0.7l-6.9,5.6c-0.1,0.1-0.4,0.1-0.5,0L4.8,6.6C4.5,6.4,4.7,5.9,5.1,5.9z M20.1,17.7c0,0.2-0.2,0.4-0.4,0.4
	H4.3c-0.2,0-0.4-0.2-0.4-0.4V8.5c0-0.3,0.4-0.5,0.6-0.3l7.2,5.8c0.1,0.1,0.4,0.1,0.5,0l7.2-5.8c0.3-0.2,0.6,0,0.6,0.3V17.7z"/>
</svg>
