<?xml version="1.0" encoding="utf-8"?>
<!-- Generator: Adobe Illustrator 21.0.0, SVG Export Plug-In . SVG Version: 6.00 Build 0)  -->
<svg version="1.1" id="Calque_1" xmlns="http://www.w3.org/2000/svg" xmlns:xlink="http://www.w3.org/1999/xlink" x="0px" y="0px"
	 viewBox="0 0 389 384" style="enable-background:new 0 0 389 384;" xml:space="preserve">
<style type="text/css">
	.st0{fill:#FFFFFF;}
</style>
<title>logo 1 white</title>
<path class="st0" d="M389,76.1h-91.3c-6.6-5.7-13.8-11-21.5-15.6c-32.6-19.6-71.1-26.4-108.4-19.1l1.9,9.8
	c34.9-6.8,70.9-0.5,101.4,17.8c3.7,2.2,7.2,4.6,10.6,7.1H57C90.4,35.7,140.9,10,197.2,10c27.6,0,55.3,6.4,80.1,18.6l4.4-9
	C255.7,6.8,226.5,0,197.5,0c-0.1,0-0.2,0-0.3,0C91.3,0,5.2,86.1,5.2,192c0,42.9,14.1,82.5,38,114.5L0,372l61.6,1l18.9-28.7
	c32.4,24.9,72.8,39.7,116.7,39.7c0.1,0,0.2,0,0.3,0c32.5,0,64.8-8.4,93.2-24.2l-4.9-8.7c-27,15.1-57.6,23-88.6,23
	c-41.8,0-80.4-14.2-111.2-38l136.9-207.9h102.7c21,42.4,20.7,94.3-5.4,137.8c-19.7,32.8-51.1,56-88.3,65.3
	c-14.2,3.5-28.5,4.9-42.7,4.1l7.9-13l0,0c0,0,0,0,0-0.1l0,0l0,0c0.1-0.3,0.3-0.5,0.4-0.8c2.1-4.3,2.5-9.2,0.9-13.7s-4.7-8.2-9-10.4
	c-2-1-4-1.6-6.2-1.8l14.2-21.2l-12.1-0.2l-35.3,53.6c-1.3-0.4-2.5-0.9-3.8-1.4l53-79.2c6,28,30.9,49.1,60.6,49.1
	c34.2,0,62-27.8,62-62c0-34.2-27.8-62-62-62c-3.8,0-7.5,0.4-11.1,1l2.4-3.6L219,169l-96.3,146.3l0.3,0.2l-4.9,8.1
	c24.2,14.5,51.3,22,78.8,22c12.5,0,25-1.5,37.4-4.6c39.8-9.9,73.3-34.7,94.4-69.9c27.1-45,28.2-98.5,7.9-143H356L389,76.1z
	 M303,234.1c0,23.7-19.3,43-43,43s-43-19.3-43-43c0-23.7,19.3-43,43-43S303,210.4,303,234.1z M176.2,306c0.7-0.5,1.5-0.9,2.3-1.2
	c2.3-0.8,4.7-0.6,6.9,0.5s3.8,2.9,4.5,5.2c0.8,2.3,0.6,4.7-0.5,6.9c-0.1,0.2-0.2,0.3-0.2,0.4l0,0l-9.8,16.6
	c-6.6-0.8-13.2-2.1-19.7-3.9L176.2,306z M49,297.6C27.7,267.8,15.2,231.3,15.2,192c0-22.5,4.1-44,11.6-63.9h133.8L49,297.6z"/>
</svg>
