<svg id="Calque_1" data-name="Calque 1" xmlns="http://www.w3.org/2000/svg" viewBox="0 0 388.98 384"><defs><style>.cls-1,.cls-3,.cls-4{fill:none;stroke:#fff;stroke-miterlimit:10;}.cls-1{stroke-width:10px;}.cls-2{fill:#fff;}.cls-3{stroke-width:19px;}.cls-4{stroke-width:9px;}</style></defs><title>logo 1 white</title><path class="cls-1" d="M255.66,392.19a148.48,148.48,0,1,0,48.07-273" transform="translate(-135.02 -72.93)"/><path class="cls-1" d="M414.56,97a186.22,186.22,0,0,0-82.34-19.07c-103.28,0-187,83.72-187,187s83.72,187,187,187a186.13,186.13,0,0,0,91-23.61" transform="translate(-135.02 -72.93)"/><polygon class="cls-2" points="355.98 128.07 21.98 128.07 54.98 76.07 388.98 76.07 355.98 128.07"/><polygon class="cls-2" points="183.65 93.07 0 372.04 61.58 373.07 245.23 94.1 183.65 93.07"/><polygon class="cls-2" points="218.95 168.96 122.61 315.29 145.91 326.83 251.25 169.5 218.95 168.96"/><polygon class="cls-2" points="185.39 274.05 149.2 329.02 157.95 333.36 197.53 274.25 185.39 274.05"/><polygon class="cls-2" points="190.07 316.57 175.97 340.34 183.73 344.19 197.14 322.21 190.07 316.57"/><circle class="cls-3" cx="259.98" cy="234.07" r="52.5"/><path class="cls-4" d="M304.38,380.31A13.5,13.5,0,1,1,328.2,393" transform="translate(-135.02 -72.93)"/></svg>